<?xml version="1.0" encoding="utf-8"?>
<!-- Generator: Adobe Illustrator 25.1.0, SVG Export Plug-In . SVG Version: 6.00 Build 0)  -->
<svg version="1.1" id="Layer_1" xmlns="http://www.w3.org/2000/svg" xmlns:xlink="http://www.w3.org/1999/xlink" x="0px" y="0px"
	 viewBox="0 0 128 128" style="enable-background:new 0 0 128 128;" xml:space="preserve">
<style type="text/css">
	.st0{fill:#DE156C;}
	.st1{fill:url(#SVGID_1_);}
	.st2{fill:#47529D;}
	.st3{fill:url(#SVGID_2_);}
	.st4{fill:#252960;}
	.st5{fill:url(#SVGID_3_);}
</style>
<g>
	<g transform="translate(64 54)">
		<path class="st0" d="M30,25L8,12.3c-1.9-1.1-4.4-0.5-5.5,1.5c-0.4,0.6-0.5,1.3-0.5,2v25.4c0,1.4,0.8,2.7,2,3.5l26,15
			c1.2,0.7,2.8,0.7,4,0l26-15c1.2-0.7,2-2,2-3.5V15.8c0-2.2-1.8-4-4-4c-0.7,0-1.4,0.2-2,0.5L34,25C32.8,25.7,31.3,25.7,30,25z"/>
		
			<linearGradient id="SVGID_1_" gradientUnits="userSpaceOnUse" x1="-1845.2075" y1="131.1638" x2="-1845.2075" y2="132.163" gradientTransform="matrix(30 0 0 46.1386 55403.2266 -6039.9053)">
			<stop  offset="0" style="stop-color:#FC72C7"/>
			<stop  offset="1" style="stop-color:#DE156C"/>
		</linearGradient>
		<path class="st1" d="M32,28.5v25.4c0,2.2,1.8,4,4,4c0.7,0,1.4-0.2,2-0.5l22-12.7c1.2-0.7,2-2,2-3.5V15.8c0-2.2-1.8-4-4-4
			c-0.7,0-1.4,0.2-2,0.5L34,25C32.8,25.7,32,27.1,32,28.5z"/>
	</g>
	<g transform="translate(32)">
		<path class="st2" d="M56,14.3L34,27c-1.2,0.7-2.8,0.7-4,0L8,14.3c-1.9-1.1-4.4-0.5-5.5,1.5c-0.4,0.6-0.5,1.3-0.5,2v25.4
			c0,1.4,0.8,2.7,2,3.5l26,15c1.2,0.7,2.8,0.7,4,0l26-15c1.2-0.7,2-2,2-3.5V17.8c0-2.2-1.8-4-4-4C57.3,13.8,56.6,14,56,14.3z"/>
		
			<linearGradient id="SVGID_2_" gradientUnits="userSpaceOnUse" x1="-1781.2075" y1="131.1638" x2="-1781.2075" y2="132.163" gradientTransform="matrix(30 0 0 46.1386 53483.2266 -6037.9053)">
			<stop  offset="0" style="stop-color:#8896DB"/>
			<stop  offset="1" style="stop-color:#47529D"/>
		</linearGradient>
		<path class="st3" d="M56,14.3L34,27c-1.2,0.7-2,2-2,3.5v25.4c0,2.2,1.8,4,4,4c0.7,0,1.4-0.2,2-0.5l22-12.7c1.2-0.7,2-2,2-3.5V17.8
			c0-2.2-1.8-4-4-4C57.3,13.8,56.6,14,56,14.3z"/>
	</g>
	<g transform="translate(0 52)">
		<path class="st4" d="M30,27L8,14.3c-1.9-1.1-4.4-0.5-5.5,1.5c-0.4,0.6-0.5,1.3-0.5,2v25.4c0,1.4,0.8,2.7,2,3.5l26,15
			c1.2,0.7,2.8,0.7,4,0l26-15c1.2-0.7,2-2,2-3.5V17.8c0-2.2-1.8-4-4-4c-0.7,0-1.4,0.2-2,0.5L34,27C32.8,27.7,31.3,27.7,30,27z"/>
		
			<linearGradient id="SVGID_3_" gradientUnits="userSpaceOnUse" x1="-1717.2075" y1="131.1639" x2="-1717.2075" y2="132.163" gradientTransform="matrix(30 0 0 46.1386 51563.2266 -6037.9072)">
			<stop  offset="0" style="stop-color:#757CBA"/>
			<stop  offset="1" style="stop-color:#252960"/>
		</linearGradient>
		<path class="st5" d="M32,30.5v25.4c0,2.2,1.8,4,4,4c0.7,0,1.4-0.2,2-0.5l22-12.7c1.2-0.7,2-2,2-3.5V17.8c0-2.2-1.8-4-4-4
			c-0.7,0-1.4,0.2-2,0.5L34,27C32.8,27.7,32,29.1,32,30.5z"/>
	</g>
</g>
</svg>
